<svg width="36" height="36" viewBox="0 0 36 36" fill="none" xmlns="http://www.w3.org/2000/svg">
<path d="M6.25744 2.21674C5.71024 0.532228 3.90096 -0.389574 2.21674 0.157909C0.532228 0.70511 -0.389574 2.51439 0.157908 4.19862L8.44991 29.711C9.01933 31.2847 10.7192 32.1689 12.3509 31.6993C14.053 31.2094 15.0905 29.4017 14.5473 27.7301L6.25744 2.21674Z" transform="translate(17.0879)" fill="#DFA22F"/>
<path d="M6.25778 2.21674C5.7103 0.532376 3.90116 -0.389426 2.21693 0.157775C0.532281 0.705117 -0.389662 2.51426 0.157961 4.19876L8.4501 29.7113C9.01939 31.2848 10.7194 32.1692 12.3511 31.6992C14.0531 31.2095 15.0905 29.4018 14.5474 27.73L6.25778 2.21674Z" transform="translate(4.24023 4.1748)" fill="#3CB187"/>
<path d="M29.6085 6.2575C31.293 5.7103 32.2145 3.9013 31.6673 2.21666C31.1201 0.53243 29.3108 -0.389513 27.6266 0.157829L2.1142 8.45011C0.540544 9.01925 -0.3437 10.7191 0.125852 12.3509C0.615801 14.0528 2.42353 15.0904 4.0951 14.5472L29.6085 6.25765" transform="translate(4.1748 17.0884)" fill="#CE1E5B"/>
<path d="M1.98188 8.07945L8.07945 6.09827L6.09799 -5.15144e-08L-1.803e-07 1.98202L1.98188 8.07959" transform="translate(9.625 22.4727)" fill="#392538"/>
<path d="M1.98202 8.08057C4.2873 7.33179 6.42997 6.63548 8.07973 6.09939L6.09799 4.46458e-07L5.32316e-07 1.98202L1.98202 8.08057Z" transform="translate(22.4727 18.2964)" fill="#BB242A"/>
<path d="M29.6085 6.25759C31.2929 5.71039 32.2147 3.90125 31.6675 2.2166C31.1203 0.532377 29.311 -0.389425 27.6265 0.157776L2.11396 8.45019C0.540441 9.01906 -0.343943 10.719 0.126031 12.3508C0.615699 14.0526 2.42343 15.0902 4.09528 14.5471L29.6085 6.25745" transform="translate(0 4.24023)" fill="#72C5CD"/>
<path d="M1.98202 8.07973C3.64262 7.54012 5.78359 6.84438 8.08057 6.09827C7.33179 3.79271 6.63548 1.65004 6.09939 3.86358e-07L-2.18936e-07 1.9823L1.98202 8.07973Z" transform="translate(5.44824 9.62402)" fill="#248C73"/>
<path d="M1.98202 8.08113L8.08085 6.09939C7.42031 4.06624 6.75968 2.0331 6.09897 -1.88879e-07L1.03029e-06 1.9823L1.98202 8.08113Z" transform="translate(18.2969 5.44775)" fill="#62803A"/>
</svg>
