<?xml version="1.0" encoding="UTF-8"?>
<svg width="36px" height="36px" viewBox="0 0 36 36" version="1.1" xmlns="http://www.w3.org/2000/svg" xmlns:xlink="http://www.w3.org/1999/xlink">
    <!-- Generator: Sketch 49.1 (51147) - http://www.bohemiancoding.com/sketch -->
    <title>Group</title>
    <desc>Created with Sketch.</desc>
    <defs>
        <linearGradient x1="78.6063975%" y1="2.57282033%" x2="116.400857%" y2="143.648749%" id="linearGradient-1">
            <stop stop-color="#DD9FCF" offset="0%"></stop>
            <stop stop-color="#007BFF" offset="100%"></stop>
        </linearGradient>
    </defs>
    <g id="Page-1" stroke="none" stroke-width="1" fill="none" fill-rule="evenodd">
        <g id="Group" fill="url(#linearGradient-1)" fill-rule="nonzero">
            <path d="M1.12229,24.937705 C2.11861,16.920805 6.27157,14.349305 9.99018,12.070905 C13.7873,9.743295 17.0716,7.704665 16.6765,0.0451050014 C14.9072,0.171463 13.2074,0.542489 11.6123,1.130015 C11.7775,7.208885 8.85072,9.011705 6.01063,10.752505 C3.01104,12.590805 0.177505,14.327605 1.17015e-08,21.181505 C0.237219,22.486105 0.614315,23.745705 1.12229,24.937705 Z" id="Shape"></path>
            <path d="M5.145145,9.38594 C7.792185,7.7626 9.932875,6.43463 9.981135,1.82135001 C5.163145,4.14489 1.531245,8.49177 0.231445005,13.72955 C1.565595,11.58151 3.419995,10.44268 5.145145,9.38594 Z" id="Shape"></path>
            <path d="M5.6289,31.2459 C6.27348,22.7018 10.0837,19.7199 13.77858,16.833 C17.79248,13.6974 21.58558,10.726 21.37208,0.301811 C20.37658,0.119115 19.35408,0.0169014 18.30948,0 C18.73318,8.58028 14.73728,11.0575 10.85507,13.4366 C6.92215,15.8471 2.863254,18.3493 2.55077994,27.6185 C3.413765,28.9569 4.44853,30.1771 5.6289,31.2459 Z" id="Shape"></path>
            <path d="M25.2206,21.8519 C28.8869,18.9569 32.3454,16.2012 32.1605,6.59475 C31.1732,5.41085 30.0354,4.356523 28.7773,3.45269997 C28.7258,13.9477 24.5793,17.2282 20.56052,20.4008 C16.77811,23.3875 13.207559,26.2133 12.9458007,35.3022 C14.45418,35.7288 16.04028,35.971 17.67954,36 C18.11063,27.4905 21.7188,24.6181 25.2206,21.8519 Z" id="Shape"></path>
            <path d="M31.3654,25.60644 C28.73963,27.18068 26.462332,28.56097 26.1973013,34.0966 C31.23207,31.6072 34.94331,26.9006 36.00016,21.2836998 C34.82061,23.53239 33.03165,24.60764 31.3654,25.60644 Z" id="Shape"></path>
            <path d="M30.5144,24.23268 C33.3267,22.54568 35.9844,20.95378 35.6605,13.55175 L35.7447,13.54853 C35.3128,11.87931 34.6388,10.30426 33.7684,8.85718009 C33.3815,17.44471 29.7643,20.32918 26.24613,23.10748 C22.89808,25.74898 19.739797,28.26568 19.3218007,35.95498 C21.14511,35.82778 22.89481,35.43588 24.53407,34.82018 C24.63387,27.75858 27.75697,25.88578 30.5144,24.23268 Z" id="Shape"></path>
            <path d="M19.53751,19.145295 C23.55801,15.971795 27.35681,12.965795 27.13431,2.400005 C25.85161,1.670825 24.47091,1.090543 23.01731,0.682494992 C23.13431,11.579895 18.89701,14.889295 14.79562,18.093395 C11.06065,21.010895 7.535906,23.782695 7.19970976,32.517495 C8.46515,33.432595 9.85411,34.188295 11.33795,34.762195 C11.74204,25.325595 15.69951,22.175495 19.53751,19.145295 Z" id="Shape"></path>
        </g>
    </g>
</svg>