<svg width="31" height="33" viewBox="0 0 31 33" fill="none" xmlns="http://www.w3.org/2000/svg">
<path d="M26.3944 2.4883C24.7006 0.746678 21.6388 -1.67329e-09 17.7218 -1.67329e-09H6.35363C5.96608 1.29437e-05 5.59125 0.124743 5.29653 0.351765C5.0018 0.578788 4.80651 0.893211 4.74578 1.2385L0.0122835 28.321C-0.0818029 28.8551 0.376595 29.3387 0.976608 29.3387H7.99492L9.75752 19.2531L9.70282 19.5689C9.82839 18.856 10.5043 18.3302 11.3046 18.3302H14.6397C21.1914 18.3302 26.3216 15.9295 27.8202 8.98481C27.8646 8.77941 27.9032 8.5795 27.9365 8.3842C27.7473 8.29384 27.7473 8.29384 27.9365 8.3842C28.3827 5.81738 27.9334 4.07016 26.3944 2.4883Z" fill="#27346A"/>
<path d="M12.443 7.45954C12.6349 7.37712 12.8447 7.33441 13.0572 7.33453H21.9697C23.025 7.33453 24.0094 7.39649 24.9089 7.52709C25.1607 7.5633 25.4111 7.60652 25.6598 7.65671C26.0124 7.72689 26.3609 7.81279 26.704 7.91408C27.1462 8.04732 27.5581 8.20249 27.9366 8.3842C28.3827 5.81639 27.9334 4.07016 26.3944 2.4883C24.6996 0.746678 21.6388 -1.67329e-09 17.7218 -1.67329e-09H6.35266C5.5522 -1.67329e-09 4.87123 0.525712 4.74578 1.2385L0.0122842 28.32C-0.0818022 28.8549 0.376595 29.3379 0.975636 29.3379H7.99492L11.6518 8.41797C11.6877 8.21235 11.7785 8.01768 11.9163 7.85073C12.0542 7.68377 12.2349 7.54952 12.443 7.45954Z" fill="#27346A"/>
<path d="M20.3207 0.60061C18.8221 7.54431 13.6921 9.94598 7.1402 9.94598H3.80414C3.0038 9.94598 2.32781 10.4718 2.20346 11.1847L0.0106631 23.7249C-0.0712674 24.1923 0.32939 24.6158 0.85355 24.6158H6.76981C7.10871 24.6157 7.43646 24.5066 7.69412 24.308C7.95177 24.1094 8.12243 23.8343 8.17539 23.5324L8.23301 23.2604L9.34807 16.8852L9.41991 16.5328C9.47287 16.2309 9.6435 15.9559 9.90113 15.7573C10.1588 15.5587 10.4865 15.4495 10.8254 15.4494H11.7108C17.4419 15.4494 21.9295 13.349 23.2409 7.27421C23.7883 4.73558 23.505 2.61606 22.057 1.12731C21.6178 0.676386 21.0724 0.303979 20.437 3.48043e-07C20.4026 0.196292 20.3653 0.395216 20.3207 0.60061Z" transform="translate(7.5 8.38428)" fill="#2790C3"/>
<path d="M16.6643 0.485689C16.4307 0.424136 16.1948 0.369641 15.9571 0.322295C15.7082 0.27293 15.4579 0.229999 15.2063 0.193554C14.3057 0.0620707 13.3221 2.98998e-06 12.2658 2.98998e-06H3.35441C3.14174 -0.000432187 2.93173 0.0426484 2.74017 0.126003C2.53186 0.215712 2.35092 0.349876 2.21303 0.51688C2.07514 0.683883 1.98446 0.878691 1.94883 1.08443L0.0547018 11.9187L-1.26129e-07 12.2345C0.124597 11.5216 0.800463 10.9958 1.60093 10.9958H4.93698C11.4887 10.9958 16.6188 8.59508 18.1173 1.65039C18.162 1.445 18.1994 1.24597 18.2338 1.04978C17.8543 0.869062 17.4435 0.712905 17.0012 0.580545C16.8896 0.547164 16.7773 0.515541 16.6645 0.485689" transform="translate(9.7041 7.33398)" fill="#1F264F"/>
</svg>
