<?xml version="1.0" encoding="UTF-8"?>
<svg width="26px" height="26px" viewBox="0 0 26 26" version="1.1" xmlns="http://www.w3.org/2000/svg" xmlns:xlink="http://www.w3.org/1999/xlink" style="background: #FFFFFF;">
    <!-- Generator: Sketch 49.1 (51147) - http://www.bohemiancoding.com/sketch -->
    <title>Artboard</title>
    <desc>Created with Sketch.</desc>
    <defs></defs>
    <g id="Artboard" stroke="none" stroke-width="1" fill="none" fill-rule="evenodd">
        <g id="google-icon" transform="translate(4.000000, 4.000000)" fill-rule="nonzero">
            <path d="M17.755102,9.1845266 C17.755102,8.44549821 17.6946816,7.90620164 17.5639211,7.34693878 L9.06122449,7.34693878 L9.06122449,10.6825497 L14.0521157,10.6825497 C13.9515306,11.5114953 13.4081633,12.7598708 12.2006571,13.5987306 L12.1837311,13.7104042 L14.8721266,15.7774668 L15.0583823,15.7959184 C16.7689524,14.2279444 17.755102,11.920942 17.755102,9.1845266" id="Shape" fill="#4285F4"></path>
            <path d="M9.06648657,18 C11.5106183,18 13.562488,17.1994633 15.0612245,15.8186497 L12.2046524,13.6172256 C11.4402372,14.1475596 10.4142677,14.5177863 9.06648657,14.5177863 C6.67262705,14.5177863 4.64086625,12.9468581 3.91659945,10.7755102 L3.81043837,10.7844779 L1.01613455,12.935821 L0.979591837,13.0368797 C2.46820454,15.9786881 5.52593484,18 9.06648657,18" id="Shape" fill="#34A853"></path>
            <path d="M3.91836735,10.7313562 C3.72649051,10.1742695 3.61544422,9.57733696 3.61544422,8.9605844 C3.61544422,8.34376325 3.72649051,7.74689929 3.90827223,7.18981254 L3.90318986,7.07116672 L1.06242401,4.89795918 L0.969479315,4.94150838 C0.353468329,6.15519348 0,7.51811173 0,8.9605844 C0,10.4030571 0.353468329,11.7659067 0.969479315,12.9795918 L3.91836735,10.7313562" id="Shape" fill="#FBBC05"></path>
            <path d="M9.1020104,3.48214476 C10.8093027,3.48214476 11.9609624,4.21259565 12.6176508,4.82301779 L15.1836735,2.34145763 C13.6077327,0.890558228 11.5568786,0 9.1020104,0 C5.54590586,0 2.47474366,2.02124296 0.979591837,4.96305134 L3.91940242,7.2244898 C4.65694937,5.0531419 6.69763521,3.48214476 9.1020104,3.48214476" id="Shape" fill="#EB4335"></path>
        </g>
    </g>
</svg>