<?xml version="1.0" encoding="UTF-8"?>
<svg width="776px" height="776px" viewBox="0 0 776 776" version="1.1" xmlns="http://www.w3.org/2000/svg" xmlns:xlink="http://www.w3.org/1999/xlink" style="background: #CF649A;">
    <!-- Generator: Sketch 49.1 (51147) - http://www.bohemiancoding.com/sketch -->
    <title>Artboard 2</title>
    <desc>Created with Sketch.</desc>
    <defs></defs>
    <g id="Artboard-2" stroke="none" stroke-width="1" fill="none" fill-rule="evenodd">
        <g id="sass-1" transform="translate(132.000000, 196.000000)" fill="#FFFFFF" fill-rule="nonzero">
            <path d="M441.6,220.6 C423.7,220.701 408.2,225 395.2,231.401 C390.4,221.901 385.6,213.6 384.801,207.401 C383.901,200.201 382.801,195.8 383.901,187.201 C385,178.6 390,166.4 390,165.4 C389.899,164.5 388.899,160.1 378.6,160 C368.301,159.9 359.4,162 358.4,164.7 C357.4,167.4 355.4,173.6 354.1,180 C352.3,189.4 333.5,222.7 322.8,240.2 C319.3,233.4 316.3,227.4 315.699,222.599 C314.8,215.4 313.699,210.999 314.8,202.4 C315.9,193.799 320.9,181.6 320.9,180.6 C320.8,179.7 319.8,175.3 309.501,175.2 C299.2,175.1 290.301,177.2 289.301,179.9 C288.301,182.6 287.201,189 285.001,195.2 C282.9,201.4 257.9,257 251.4,271.5 C248.1,278.9 245.201,284.8 243.1,288.8 C241,292.8 243,289.1 242.8,289.5 C241,292.9 240,294.8 240,294.8 L240,294.901 C238.6,297.401 237.1,299.8 236.399,299.8 C235.899,299.8 234.899,293.1 236.599,283.901 C240.299,264.6 249.299,234.501 249.2,233.401 C249.2,232.901 250.899,227.6 243.399,224.901 C236.099,222.201 233.5,226.701 232.899,226.701 C232.299,226.701 231.799,228.301 231.799,228.301 C231.799,228.301 239.899,194.402 216.299,194.402 C201.499,194.402 181.099,210.502 170.999,225.202 C164.599,228.702 150.999,236.101 136.599,244.002 C131.099,247.002 125.399,250.202 119.999,253.102 L118.9,251.9 C90.3,221.4 37.4,199.8 39.6,158.8 C40.4,143.9 45.6,104.6 141.201,57 C219.501,18 282.201,28.7 293.1,52.5 C308.6,86.5 259.6,149.7 178.201,158.8 C147.201,162.3 130.9,150.3 126.801,145.8 C122.501,141.1 121.901,140.9 120.301,141.8 C117.701,143.2 119.301,147.4 120.301,149.9 C122.701,156.2 132.701,167.4 149.701,173 C164.6,177.9 201.001,180.6 245.001,163.6 C294.301,144.5 332.801,91.5 321.501,47.2 C310.001,2.1 235.201,-12.7 164.501,12.4 C122.4,27.4 76.8,50.8 44,81.5 C5,117.9 -1.2,149.7 1.4,162.9 C10.501,210 75.4,240.7 101.4,263.4 C100.1,264.099 98.9,264.799 97.8,265.4 C84.8,271.799 35.3,297.7 22.9,325.099 C8.9,356.099 25.1,378.4 35.9,381.4 C69.3,390.7 103.5,374 122,346.5 C140.399,319 138.2,283.3 129.7,267 L129.399,266.4 L139.599,260.4 C146.2,256.5 152.7,252.9 158.399,249.799 C155.2,258.499 152.899,268.799 151.7,283.799 C150.3,301.4 157.5,324.199 167,333.199 C171.2,337.098 176.2,337.199 179.3,337.199 C190.3,337.199 195.3,328.098 200.8,317.199 C207.6,303.899 213.6,288.499 213.6,288.499 C213.6,288.499 206.1,330.199 226.6,330.199 C234.1,330.199 241.6,320.499 245,315.499 L245,315.599 C245,315.599 245.2,315.299 245.6,314.599 C246.019586,313.978591 246.41978,313.345285 246.8,312.7 L246.8,312.5 C249.8,307.3 256.5,295.4 266.5,275.7 C279.399,250.3 291.8,218.5 291.8,218.5 C291.8,218.5 293,226.3 296.7,239.1 C298.899,246.701 303.699,255 307.399,263.1 C304.399,267.3 302.599,269.701 302.599,269.701 L302.699,269.801 C300.3,273.001 297.599,276.402 294.8,279.801 C284.6,292.001 272.4,305.902 270.8,309.902 C268.9,314.601 269.3,318.101 273,320.902 C275.7,322.902 280.5,323.301 285.6,322.902 C294.8,322.301 301.2,320.002 304.4,318.601 C309.4,316.801 315.1,314.101 320.6,310.101 C330.6,302.702 336.7,292.202 336.1,278.202 C335.8,270.502 333.3,262.902 330.2,255.702 C331.1,254.402 332.001,253.101 332.9,251.702 C348.7,228.601 360.9,203.202 360.9,203.202 C360.9,203.202 362.1,211.002 365.8,223.802 C367.699,230.302 371.5,237.403 374.9,244.403 C360.1,256.503 350.8,270.503 347.6,279.703 C341.7,296.703 346.3,304.403 355,306.203 C358.899,307.003 364.5,305.203 368.699,303.403 C373.899,301.703 380.199,298.802 386,294.503 C396,287.103 405.6,276.803 405.1,262.903 C404.8,256.503 403.1,250.203 400.8,244.203 C413.4,239.003 429.699,236.003 450.4,238.503 C494.9,243.703 503.7,271.503 502.001,283.103 C500.301,294.704 491.001,301.103 487.9,303.103 C484.8,305.003 483.8,305.704 484.1,307.103 C484.5,309.204 485.9,309.103 488.6,308.704 C492.3,308.103 512,299.204 512.8,277.805 C514,250.301 487.9,220.301 441.6,220.6 Z M98.4,336.3 C83.7,352.4 63,358.5 54.2,353.3 C44.7,347.8 48.399,324.1 66.5,307 C77.5,296.6 91.8,287 101.2,281.1 C103.3,279.8 106.5,277.901 110.3,275.6 C110.9,275.201 111.3,275 111.3,275 C112,274.6 112.8,274.1 113.6,273.6 C120.3,298 113.9,319.4 98.4,336.3 Z M205.9,263.2 C200.8,275.7 190,307.8 183.5,306 C177.899,304.5 174.5,280.2 182.399,256.2 C186.399,244.099 194.899,229.7 199.899,224.099 C208,215.099 216.799,212.099 219,215.799 C221.6,220.6 209.1,255.4 205.9,263.2 Z M294.6,305.6 C292.4,306.701 290.4,307.5 289.5,306.901 C288.8,306.501 290.399,305.001 290.399,305.001 C290.399,305.001 301.499,293.101 305.899,287.601 C308.399,284.402 311.399,280.702 314.599,276.501 L314.599,277.701 C314.6,292.1 300.8,301.7 294.6,305.6 Z M362.999,290 C361.399,288.8 361.6,285.1 366.999,273.5 C369.1,268.9 373.899,261.2 382.199,253.9 C383.199,256.9 383.8,259.799 383.699,262.5 C383.6,280.5 370.8,287.2 362.999,290 Z" id="Shape"></path>
        </g>
    </g>
</svg>