<?xml version="1.0" encoding="UTF-8"?>
<svg width="500px" height="500px" viewBox="0 0 500 500" version="1.1" xmlns="http://www.w3.org/2000/svg" xmlns:xlink="http://www.w3.org/1999/xlink" style="background: #563D7C;">
    <!-- Generator: Sketch 49.1 (51147) - http://www.bohemiancoding.com/sketch -->
    <title>Artboard 3</title>
    <desc>Created with Sketch.</desc>
    <defs></defs>
    <g id="Artboard-3" stroke="none" stroke-width="1" fill="none" fill-rule="evenodd">
        <g id="bootstrap-4" transform="translate(20.000000, 20.000000)" fill-rule="nonzero">
            <path d="M0,400.686953 C0,433.447578 26.5560156,460 59.3130469,460 L400.685156,460 C433.447578,460 460,433.443984 460,400.686953 L460,59.3148437 C460,26.5524219 433.443984,0 400.686953,0 L59.3148437,0 C26.5524219,0 0,26.5560156 0,59.3130469 L0,400.685156 L0,400.686953 Z" id="Shape" fill="#563D7C"></path>
            <path d="M191.43541,203.523639 L191.43541,138.502129 L248.955738,138.502129 C254.43541,138.502129 259.716804,138.955897 264.803525,139.865226 C269.890246,140.772761 274.391148,142.394129 278.304426,144.731123 C282.215902,147.068116 285.346886,150.312645 287.695574,154.46471 C290.042459,158.618568 291.217705,163.940026 291.217705,170.42729 C291.217705,182.108671 287.695574,190.545523 280.651312,195.736052 C273.608852,200.928374 264.608852,203.523639 253.651312,203.523639 L191.43541,203.523639 Z M130,91 L130,369 L265.391148,369 C277.913279,369 290.109153,367.4432 301.97877,364.327806 C313.848388,361.212413 324.412978,356.411084 333.674344,349.922026 C342.933907,343.432968 350.304426,335.060684 355.782295,324.808761 C361.261967,314.555045 364,302.419897 364,288.403316 C364,271.011277 359.760465,256.151729 351.283196,243.822877 C342.804126,231.492232 329.955738,222.861677 312.738033,217.929419 C325.260164,211.96049 334.718005,204.302039 341.109754,194.957652 C347.4997,185.613265 350.695574,173.933677 350.695574,159.915303 C350.695574,146.937187 348.543361,136.036 344.238935,127.209948 C339.934508,118.38569 333.869017,111.311935 326.042459,105.990477 C318.217705,100.669019 308.826557,96.8397935 297.869017,94.5045935 C286.913279,92.1676 274.782295,91 261.477869,91 L130,91 Z M191.43541,321.497871 L191.43541,245.184181 L258.346886,245.184181 C271.651312,245.184181 282.347486,248.233213 290.43541,254.334865 C298.52153,260.434723 302.566393,270.622077 302.566393,284.898723 C302.566393,292.167974 301.326257,298.136903 298.847787,302.809097 C296.369317,307.48129 293.043661,311.181381 288.869017,313.905781 C284.696175,316.631974 279.869017,318.577974 274.391148,319.747368 C268.911476,320.913174 263.174044,321.497871 257.173443,321.497871 L191.43541,321.497871 Z" id="Shape" fill="#FFFFFF"></path>
        </g>
    </g>
</svg>