<svg width="36" height="36" viewBox="0 0 36 36" fill="none" xmlns="http://www.w3.org/2000/svg">
<path fill-rule="evenodd" clip-rule="evenodd" d="M0 0H36V36H0V0Z" fill="white"/>
<path fill-rule="evenodd" clip-rule="evenodd" d="M0.824379 30.6851H0.721472C0.721472 30.6337 0.695698 30.5564 0.695698 30.5304C0.695698 30.5048 0.695698 30.4535 0.618378 30.4535H0.463737V30.6851H0.386416V30.1442H0.618378C0.721472 30.1442 0.798605 30.1701 0.798605 30.2729C0.798605 30.3502 0.772832 30.3761 0.747245 30.4015C0.773019 30.4275 0.798605 30.4533 0.798605 30.5048V30.6077C0.798605 30.6337 0.798606 30.6337 0.824379 30.6337V30.6851ZM0.721472 30.2988C0.721472 30.2215 0.669925 30.2215 0.644151 30.2215H0.463737V30.3761H0.618378C0.669925 30.3761 0.721472 30.3502 0.721472 30.2988ZM1.15943 30.4017C1.15943 30.0928 0.901886 29.8349 0.566831 29.8349C0.257735 29.8349 3.20603e-08 30.0928 3.20603e-08 30.4017C3.20603e-08 30.7366 0.257735 30.9945 0.566831 30.9945C0.9017 30.9943 1.15943 30.7366 1.15943 30.4017ZM1.08211 30.4017C1.08211 30.6852 0.850339 30.8912 0.566831 30.8912C0.283322 30.8912 0.0773206 30.6851 0.0773206 30.4017C0.0773206 30.1442 0.283509 29.9122 0.566831 29.9122C0.850153 29.9122 1.08211 30.1442 1.08211 30.4017ZM32.8235 19.9931C32.8235 20.7662 32.334 21.1264 31.4579 21.1264H29.7835V20.3534H31.4579C31.6125 20.3534 31.7414 20.3278 31.7931 20.2765C31.8445 20.2247 31.896 20.1474 31.896 20.0445C31.896 19.9412 31.8447 19.8383 31.7931 19.787C31.7414 19.7352 31.6385 19.7096 31.4838 19.7096C30.6854 19.6837 29.6804 19.7352 29.6804 18.6018C29.6804 18.0863 30.0153 17.5195 30.917 17.5195H32.6431V18.2925H31.0457C30.8914 18.2925 30.7881 18.2925 30.7108 18.3438C30.6335 18.4212 30.5821 18.4985 30.5821 18.6273C30.5821 18.7562 30.6595 18.8335 30.7624 18.8853C30.8657 18.9108 30.9687 18.9366 31.0976 18.9366H31.5612C32.0507 18.9366 32.36 19.0395 32.5661 19.2201C32.7204 19.4004 32.8235 19.6325 32.8235 19.9931ZM29.1908 19.2201C28.9846 19.0395 28.6753 18.9366 28.1858 18.9366H27.7222C27.5935 18.9366 27.4903 18.9107 27.3874 18.8853C27.2841 18.8335 27.2071 18.7562 27.2071 18.6273C27.2071 18.4985 27.2327 18.4212 27.3358 18.3438C27.4131 18.2925 27.516 18.2925 27.6707 18.2925H29.2681V17.5195H27.542C26.6143 17.5195 26.305 18.0863 26.305 18.6018C26.305 19.735 27.31 19.6837 28.1088 19.7096C28.2631 19.7096 28.3664 19.7352 28.4177 19.787C28.4691 19.8383 28.521 19.9412 28.521 20.0445C28.521 20.1474 28.4693 20.2247 28.4177 20.2765C28.3404 20.3278 28.2375 20.3534 28.0829 20.3534H26.4081V21.1264H28.0829C28.9586 21.1264 29.4483 20.766 29.4483 19.9931C29.4483 19.6325 29.3454 19.4004 29.1908 19.2201ZM25.8929 20.3796H23.8579V19.6581H25.8415V18.937H23.8579V18.2669H25.8929V17.5198H23.0075V21.1266H25.8929V20.3796ZM22.0799 17.7002C21.7964 17.5456 21.4615 17.5196 21.0235 17.5196H19.0399V21.1264H19.9156V19.8125H20.8433C21.1522 19.8125 21.3328 19.8385 21.4617 19.9672C21.6163 20.1474 21.6163 20.4567 21.6163 20.6887V21.1264H22.4663V20.4307C22.4663 20.0959 22.4407 19.9412 22.3376 19.761C22.2603 19.6577 22.106 19.529 21.8998 19.4517C22.1314 19.3748 22.5182 19.0655 22.5182 18.4985C22.518 18.0865 22.3634 17.8545 22.0799 17.7002ZM17.1848 17.5196H14.4279L13.3201 18.7048L12.2637 17.5196H8.78559V21.1264H12.2124L13.3202 19.9412L14.3766 21.1264H16.0513V19.9158H17.1334C17.8805 19.9158 18.6279 19.7096 18.6279 18.7048C18.6277 17.7258 17.8547 17.5196 17.1848 17.5196ZM21.3842 19.0141C21.2555 19.0655 21.1266 19.0655 20.972 19.0655L19.9156 19.0915V18.2667H20.972C21.1266 18.2667 21.2813 18.2667 21.3842 18.344C21.4875 18.3958 21.5644 18.4987 21.5644 18.6533C21.5644 18.8079 21.4875 18.9368 21.3842 19.0141ZM17.1848 19.1944H16.0511V18.2667H17.1848C17.4941 18.2667 17.7001 18.3958 17.7001 18.7048C17.7001 19.0141 17.4939 19.1944 17.1848 19.1944ZM13.8611 19.323L15.2008 17.9062V20.8175L13.8611 19.323ZM11.7742 20.3796H9.63575V19.6581H11.5422V18.937H9.63575V18.2669H11.8L12.7532 19.3232L11.7742 20.3796ZM30.4273 14.9174H29.1908L27.5676 12.2122V14.9174H25.8159L25.4807 14.1187H23.6773L23.3424 14.9174H22.3374C21.9252 14.9174 21.3842 14.8144 21.0753 14.5051C20.7918 14.196 20.6371 13.7838 20.6371 13.1396C20.6371 12.5986 20.7144 12.1091 21.1007 11.7227C21.3582 11.4391 21.8221 11.3105 22.4146 11.3105H23.2389V12.0835H22.4146C22.1056 12.0835 21.925 12.135 21.7448 12.2897C21.5902 12.4443 21.5129 12.7276 21.5129 13.114C21.5129 13.5005 21.5902 13.784 21.7448 13.9644C21.8735 14.0931 22.1056 14.1446 22.3372 14.1446H22.7238L23.9604 11.3106H25.2487L26.6915 14.7114V11.3105H28.0313L29.5514 13.8096V11.3105H30.4271V14.9174H30.4273ZM20.1992 11.3105H19.3234V14.9174H20.1992V11.3105ZM18.3698 11.4651C18.0863 11.3105 17.7774 11.3105 17.3394 11.3105H15.3554V14.9174H16.2056V13.6034H17.133C17.4423 13.6034 17.6485 13.6291 17.7772 13.758C17.9318 13.9384 17.9059 14.2477 17.9059 14.4537V14.9174H18.7816V14.196C18.7816 13.8869 18.756 13.7322 18.6273 13.5518C18.55 13.4487 18.3954 13.3199 18.2152 13.2427C18.4467 13.1396 18.8335 12.8563 18.8335 12.2895C18.8337 11.8773 18.6531 11.6453 18.3698 11.4651ZM14.737 14.1704H12.7274V13.4489H14.7113V12.7019H12.7274V12.0577H14.737V11.3106H11.8515V14.9176H14.737V14.1704ZM11.2074 11.3105H9.79039L8.73405 13.758L7.60039 11.3105H6.20918V14.7113L4.74065 11.3105H3.45253L1.90668 14.9174H2.83415L3.16902 14.1187H4.97242L5.30729 14.9174H7.05933V12.0835L8.32167 14.9174H9.06873L10.3313 12.0835V14.9174H11.2072V11.3105H11.2074ZM25.1718 13.3458L24.579 11.9288L23.9866 13.3458H25.1718ZM17.7001 12.7792C17.5714 12.8565 17.4425 12.8565 17.2621 12.8565H16.2056V12.0579H17.2619C17.4165 12.0579 17.5966 12.0579 17.6999 12.1094C17.8028 12.1868 17.8545 12.2899 17.8545 12.4443C17.8545 12.5988 17.803 12.7274 17.7001 12.7792ZM3.47812 13.3458L4.07072 11.9288L4.66333 13.3458H3.47812ZM32.6175 4.2747e-09H1.88072V12.9852L2.93706 10.5892H5.17842L5.4877 11.1818V10.5892H8.11567L8.70827 11.8773L9.2751 10.5892H17.6485C18.0347 10.5892 18.3696 10.6665 18.6275 10.8725V10.5892H20.9204V10.8725C21.3067 10.6663 21.7962 10.5892 22.3632 10.5892H25.6867L25.996 11.1818V10.5892H28.4435L28.8043 11.1818V10.5892H31.2002V15.6389H28.7786L28.315 14.8661V15.6389H25.3004L24.9656 14.8145H24.2181L23.8833 15.6389H22.3118C21.6935 15.6389 21.2295 15.4843 20.9206 15.3298V15.6389H17.1848V14.4795C17.1848 14.3248 17.159 14.2991 17.0559 14.2991H16.9272V15.6387H9.71307V14.9946L9.45552 15.6387H7.93544L7.67789 15.0204V15.6387H4.76642L4.45732 14.8144H3.71008L3.37521 15.6387H1.88072V30.8655H32.6175V21.6159C32.2826 21.7706 31.8187 21.8479 31.355 21.8479H29.1134V21.5386C28.8559 21.745 28.392 21.8479 27.9542 21.8479H20.8947V20.6887C20.8947 20.534 20.8691 20.534 20.74 20.534H20.6113V21.8479H18.2925V20.4825C17.9062 20.6627 17.4681 20.6627 17.0817 20.6627H16.8239V21.8479H13.99L13.3202 21.0749L12.5732 21.8479H8.01258V16.7984H12.6501L13.3201 17.571L14.0415 16.7984H17.159C17.5195 16.7984 18.1122 16.8497 18.3698 17.1073V16.7984H21.1522C21.4357 16.7984 21.977 16.8497 22.3374 17.1073V16.7984H26.537V17.1075C26.769 16.9013 27.2071 16.7985 27.5934 16.7985H29.9378V17.1075C30.1957 16.9272 30.5562 16.7985 31.0201 16.7985H32.6175V4.2747e-09Z" transform="translate(0.759766 2.50293)" fill="#0077A6"/>
</svg>
