<svg xmlns="http://www.w3.org/2000/svg" width="533.333" height="533.333" preserveAspectRatio="xMidYMid meet" version="1.0" viewBox="0 0 400 400"><metadata>Created by potrace 1.11, written by Peter Selinger 2001-2013</metadata><g fill="#000" stroke="none"><path d="M0 2000 l0 -2000 2000 0 2000 0 0 2000 0 2000 -2000 0 -2000 0 0 -2000z m2289 1385 c278 -54 519 -182 721 -385 212 -211 346 -472 395 -768 26 -153 17 -419 -18 -558 -141 -557 -574 -967 -1116 -1058 -121 -20 -351 -21 -465 -1 -571 100 -1027 557 -1132 1135 -24 131 -24 383 0 505 99 503 442 909 906 1073 92 32 198 58 300 72 89 12 307 4 409 -15z" transform="translate(0.000000,400.000000) scale(0.100000,-0.100000)"/><path d="M1116 2628 c-2 -7 -30 -211 -63 -453 -83 -625 -80 -710 24 -817 90 -92 317 -131 539 -93 207 36 318 136 369 329 8 33 38 233 65 445 28 213 57 431 65 486 7 54 11 103 9 107 -3 4 -77 8 -164 8 -184 0 -161 17 -180 -135 -76 -606 -111 -839 -132 -878 -39 -69 -66 -82 -173 -82 -106 0 -127 11 -145 74 -11 38 -10 41 74 681 24 179 41 328 39 333 -2 4 -76 7 -164 7 -119 0 -161 -3 -163 -12z" transform="translate(0.000000,400.000000) scale(0.100000,-0.100000)"/><path d="M2290 2633 c0 -4 -36 -284 -81 -622 -44 -339 -83 -644 -86 -678 l-6 -63 162 0 c120 0 163 3 166 13 2 6 17 111 32 232 l28 220 142 7 c78 4 170 15 205 23 138 36 231 110 287 229 43 91 56 158 56 291 0 105 -3 127 -24 172 -44 98 -136 154 -285 173 -83 11 -596 13 -596 3z m519 -298 c40 -20 55 -63 49 -140 -11 -127 -62 -165 -221 -165 l-94 0 19 148 c11 81 21 153 23 160 6 18 187 16 224 -3z" transform="translate(0.000000,400.000000) scale(0.100000,-0.100000)"/></g></svg>